<svg width="150" height="50" viewBox="0 0 150 50" fill="none" xmlns="http://www.w3.org/2000/svg">
  <rect width="150" height="50" fill="#0A0A0A"/>
  <path d="M15 35V15H19V31H29V35H15Z" fill="#FFFFFF"/>
  <path d="M32 35V15H36V23H44V15H48V35H44V27H36V35H32Z" fill="#FFFFFF"/>
  <path d="M52 35V15H56L64 27.4737V15H68V35H64L56 22.5263V35H52Z" fill="#FFFFFF"/>
  <path d="M80 35L75 15H79L82.5 30L86 15H90L93.5 30L97 15H101L96 35H92L88.5 21L85 35H80Z" fill="#FFFFFF"/>
  <path d="M104 35V15H118V19H108V23H117V27H108V31H118V35H104Z" fill="#FFFFFF"/>
  <path d="M122 35V15H126L134 27.4737V15H138V35H134L126 22.5263V35H122Z" fill="#FFFFFF"/>
</svg>

